<svg width="393" height="44" viewBox="0 0 393 44" fill="none" xmlns="http://www.w3.org/2000/svg">
<path d="M72.7208 14.5208V0.000244141H58.2003V14.5208H43.6798V29.0413H58.2003V43.5618H72.7208V29.0413H87.244V14.5208H72.7208Z" fill="#9480AB"/>
<path d="M160.08 14.5208V0.000244141H145.56V14.5208H131.039V29.0413H145.56V43.5618H160.08V29.0413H174.604V14.5208H160.08Z" fill="#9480AB"/>
<path d="M14.5205 0.000244141H0V14.5208H14.5205V0.000244141Z" fill="#9480AB"/>
<path d="M43.5615 0.000244141H29.041V14.5208H43.5615V0.000244141Z" fill="#9480AB"/>
<path d="M14.5205 29.0415H0V43.562H14.5205V29.0415Z" fill="#9480AB"/>
<path d="M43.5615 29.0415H29.041V43.562H43.5615V29.0415Z" fill="#9480AB"/>
<path d="M101.88 0.000244141H87.3596V14.5208H101.88V0.000244141Z" fill="#9480AB"/>
<path d="M130.921 0.000244141H116.401V14.5208H130.921V0.000244141Z" fill="#9480AB"/>
<path d="M101.88 29.0415H87.3596V43.562H101.88V29.0415Z" fill="#9480AB"/>
<path d="M130.921 29.0415H116.401V43.562H130.921V29.0415Z" fill="#9480AB"/>
<path d="M247.44 14.5208V0.000244141H232.92V14.5208H218.399V29.0413H232.92V43.5618H247.44V29.0413H261.963V14.5208H247.44Z" fill="#9480AB"/>
<path d="M334.8 14.5208V0.000244141H320.279V14.5208H305.759V29.0413H320.279V43.5618H334.8V29.0413H349.323V14.5208H334.8Z" fill="#9480AB"/>
<path d="M189.24 0.000244141H174.719V14.5208H189.24V0.000244141Z" fill="#9480AB"/>
<path d="M218.281 0H203.76V14.5205H218.281V0Z" fill="#9480AB"/>
<path d="M189.24 29.0413H174.719V43.5618H189.24V29.0413Z" fill="#9480AB"/>
<path d="M218.281 29.0413H203.76V43.5618H218.281V29.0413Z" fill="#9480AB"/>
<path d="M276.599 0.000244141H262.079V14.5208H276.599V0.000244141Z" fill="#9480AB"/>
<path d="M305.64 0H291.12V14.5205H305.64V0Z" fill="#9480AB"/>
<path d="M276.599 29.0413H262.079V43.5618H276.599V29.0413Z" fill="#9480AB"/>
<path d="M305.64 29.0413H291.12V43.5618H305.64V29.0413Z" fill="#9480AB"/>
<path d="M363.959 0.000244141H349.438V14.5208H363.959V0.000244141Z" fill="#9480AB"/>
<path d="M393 0H378.479V14.5205H393V0Z" fill="#9480AB"/>
<path d="M363.959 29.0413H349.438V43.5618H363.959V29.0413Z" fill="#9480AB"/>
<path d="M393 29.0413H378.479V43.5618H393V29.0413Z" fill="#9480AB"/>
</svg>
