<svg width="68" height="21" viewBox="0 0 68 21" fill="none" xmlns="http://www.w3.org/2000/svg">
<g clip-path="url(#clip0_134_847)">
<path d="M12.5916 13.8889C11.2383 12.5239 11.0452 11.5741 11.0452 9.06121C11.0452 6.56819 11.1805 5.61839 12.533 4.3321C13.8277 3.10548 14.6397 2.98697 16.6688 2.98697C18.6789 2.98697 19.4711 3.08559 20.8046 4.3321C22.1579 5.5985 22.2734 6.5483 22.2734 9.04132C22.2734 11.5542 22.0605 12.504 20.7081 13.8889C19.5677 15.0559 18.6789 15.254 16.6688 15.254C14.6405 15.254 13.7707 15.0758 12.5916 13.8889ZM18.9116 9.14077C18.9116 6.50934 18.641 5.77752 16.6696 5.77752C14.737 5.77752 14.4086 6.62869 14.4086 9.14077C14.4086 11.8907 14.6982 12.4651 16.6696 12.4651C18.5832 12.4642 18.9116 11.9305 18.9116 9.14077Z" fill="#242424"/>
<path d="M23.8586 3.18505H26.9316C26.9893 3.46187 27.1057 4.25337 27.1634 5.18327C27.3177 4.94624 27.4919 4.68848 27.7048 4.41167C28.6323 3.18505 29.2899 2.98697 30.7002 2.98697C32.2655 2.98697 32.8258 3.10549 33.6568 3.95666C34.5455 4.88656 34.5843 5.51976 34.5843 6.56819V15.0559H31.2407V7.91332C31.2407 6.46874 30.8545 6.17203 29.4236 6.17203C27.6652 6.17203 27.2006 6.82512 27.2006 8.38823V15.0559H23.8569V3.18505H23.8586Z" fill="#242424"/>
<path d="M44.6349 15.0567C44.5383 14.8387 44.3254 14.2254 44.2099 13.5135C43.6298 14.7202 42.7411 15.2548 41.2722 15.2548C39.7258 15.2548 39.0112 15.215 37.7743 14.068C36.6339 13.0195 36.1313 12.2081 36.1313 8.98331C36.1313 6.23337 36.2857 5.56038 37.5226 4.27409C38.6432 3.10715 39.6483 2.9878 40.8662 2.9878C42.3161 2.9878 43.2436 3.3044 44.0168 4.59069C44.0168 2.79055 44.1133 0.672981 44.2099 0H47.3794V15.0567H44.6349ZM44.0168 8.24982C44.0168 6.64693 43.4367 5.935 41.8136 5.935C40.0551 5.935 39.6491 6.42979 39.6491 8.98165C39.6491 11.831 40.1327 12.3258 41.8136 12.3258C43.2246 12.3258 44.0168 11.831 44.0168 9.83282V8.24982Z" fill="#242424"/>
<path d="M58.763 14.6407C58.338 14.8188 57.6424 14.997 57.0425 15.0957C56.2891 15.2142 55.3995 15.254 54.4522 15.254C52.5386 15.254 51.5921 15.036 50.4707 13.8889C49.1562 12.5637 48.9243 11.7722 48.9243 9.06121C48.9243 6.56819 49.0786 5.57861 50.4121 4.35199C51.7068 3.12538 52.4412 2.98697 54.3548 2.98697C55.9978 2.98697 57.1382 3.224 58.0079 4.27326C58.9552 5.40125 58.9742 5.77669 58.9742 6.94446C58.9742 7.79564 58.8199 8.4479 58.2398 9.0811C57.5054 9.89249 57.0029 10.1096 56.0754 10.1096H54.2005C53.6592 10.1096 52.9446 10.0698 52.2869 10.0301C52.3645 12.0681 52.7705 12.4634 54.7419 12.4634C55.9978 12.4634 57.3321 12.2852 58.2786 12.1866L58.763 14.6407ZM52.3076 8.1313H54.4332C55.6892 8.1313 55.8443 7.89426 55.8443 7.06298C55.8443 6.11318 55.4961 5.77669 54.2789 5.77669C52.7911 5.77669 52.3851 6.25159 52.3076 8.1313Z" fill="#242424"/>
<path d="M60.4437 3.18505H63.5167C63.5744 3.50165 63.7098 4.47134 63.7675 5.53966C63.9994 5.20316 64.2891 4.84678 64.6373 4.45145C65.7389 3.22483 66.4345 2.98697 67.9999 2.98697V6.7066C64.5209 6.7066 63.7865 7.39947 63.7865 10.0508V15.0567H60.4429V3.18505H60.4437Z" fill="#242424"/>
<path d="M5.98505 10.2771H4.89498L3.23719 3.18506H0L2.83533 13.448H5.36451L4.4205 17.326L7.31029 16.9372L10.7637 3.18506H7.54464L5.98505 10.2771Z" fill="#242424"/>
<path d="M7.49106 18.2617H2.90552V21H7.49106V18.2617Z" fill="#FD6555"/>
</g>
<defs>
<clipPath id="clip0_134_847">
<rect width="68" height="21" fill="white"/>
</clipPath>
</defs>
</svg>
