<svg width="86" height="79" viewBox="0 0 86 79" fill="none" xmlns="http://www.w3.org/2000/svg">
<g clip-path="url(#clip0_1_542)">
<path d="M9.73636 48.5682H3.42753V44.3223H10.8265V41.2856H0V58.682H3.42753V51.6319H9.73636V48.5682Z" fill="white"/>
<path d="M31.6079 48.5682L28.6492 48.2072C27.1175 48.0268 26.9628 47.2304 26.9628 46.3798V45.9422C26.9628 44.7848 27.6114 44.2434 29.7417 44.2434C31.4031 44.2434 34.4938 44.5773 34.4938 44.5773V41.2834C33.481 41.2067 31.1186 41.0014 29.6393 41.0014C25.8499 41.0014 23.5375 42.3663 23.5375 45.3759V46.8694C23.5375 49.3917 25.1216 51.0657 27.3542 51.3477L30.2105 51.7086C31.7672 51.9139 31.9243 52.6855 31.9243 53.536V53.9218C31.9243 55.1311 31.4054 55.8259 28.5741 55.8259C27.2177 55.8259 25.2172 55.6635 24.2226 55.5732L19.2543 41.2834H14.4771L8.42773 58.6821H12.0624L13.5167 54.2557H20.2147L21.669 58.6821C21.669 58.6821 27.0948 58.9641 28.9383 58.9641C33.0418 58.9641 35.3518 57.6781 35.3518 54.5129V52.7893C35.3518 50.4204 33.8452 48.8525 31.6125 48.5682M14.5522 51.0386L16.7325 44.399H16.992L19.1473 51.0386H14.5522Z" fill="white"/>
<path d="M46.4082 48.4644H40.0971V41.2856H36.6719V58.682H40.0971V51.5281H46.4082V58.682H49.8335V41.2856H46.4082V48.4644Z" fill="white"/>
<path d="M55.3116 41.2856H51.884V58.6843H55.3116V41.2856Z" fill="white"/>
<path d="M63.7756 41.0014C60.4004 41.0014 57.2073 42.3663 57.2073 46.4317V53.536C57.2073 57.6014 60.3753 58.9663 63.7756 58.9663C67.1758 58.9663 70.3439 57.6014 70.3439 53.536V46.4317C70.3439 42.3663 67.1507 41.0014 63.7756 41.0014ZM66.9163 52.4035C66.9163 55.0543 65.8262 55.8259 63.7756 55.8259C61.725 55.8259 60.6348 55.0273 60.6348 52.4035V47.5146C60.6348 44.8886 61.725 44.117 63.7756 44.117C65.8262 44.117 66.9163 44.8886 66.9163 47.5146V52.4035Z" fill="white"/>
<path d="M82.5723 53.2788L75.4578 41.2856H72.0576V58.682H75.4829V46.716L82.5723 58.682H85.9999V41.2856H82.5723V53.2788Z" fill="white"/>
<path d="M15.6743 61.5991L10.69 75.934H3.52543V61.5991H0.0979004V78.9978H13.2595L14.7138 74.5714H21.4118L22.8662 78.9978H26.5008L20.4514 61.5991H15.6743ZM15.7516 71.352L17.932 64.7125H18.1914L20.3467 71.352H15.7516Z" fill="white"/>
<path d="M35.9095 70.2984L37.9078 68.3424C38.0375 68.1371 38.0625 67.801 38.0625 67.5957V65.4592C38.0625 63.3227 36.6856 61.5991 33.9864 61.5991H25.677V78.9978H34.4256C36.5809 78.9978 38.3971 77.2741 38.3971 75.1377V73.3373C38.3971 73.132 38.3721 72.7959 38.2401 72.5906L35.9027 70.3007L35.9095 70.2984ZM29.1068 64.6358H32.6891C34.2458 64.6358 34.6623 65.0982 34.6623 66.6166V67.4152L33.208 68.8297H29.1068V64.6358ZM35.0014 74.0818C35.0014 75.7039 34.4552 75.934 32.8211 75.934H29.1091V71.8416H33.2376L35.0037 73.5652V74.0796L35.0014 74.0818Z" fill="white"/>
<path d="M47.3323 68.7643L44.3713 68.4101C42.8396 68.2319 42.6826 67.4468 42.6826 66.6121V66.1811C42.6826 65.0418 43.3312 64.5094 45.4615 64.5094C47.1229 64.5094 50.2136 64.8388 50.2136 64.8388V61.5946C49.2008 61.5179 46.8384 61.3171 45.3591 61.3171C41.5674 61.3171 39.2573 62.6595 39.2573 65.6239V67.0926C39.2573 69.5765 40.8414 71.2212 43.074 71.5009L45.9303 71.8551C47.487 72.0581 47.6441 72.8184 47.6441 73.6532V74.0344C47.6441 75.2256 47.1252 75.9092 44.2939 75.9092C42.4254 75.9092 39.3347 75.6047 39.3347 75.6047V78.7473C39.3347 78.7473 42.8146 79 44.6581 79C48.7593 79 51.0716 77.7344 51.0716 74.6165V72.92C51.0716 70.5895 49.5649 69.0441 47.3323 68.7643Z" fill="white"/>
<path d="M84.5708 31.1605V29.7437H83.1415V28.3269H81.7122H80.283V26.9124H78.8537H77.4267V25.4956H75.9974H74.5682V24.0788H73.1389H71.7096V22.662H70.2826H68.8533V21.2452H67.4241H65.9948V19.8307H64.5655H63.1362V18.4139H61.7092H60.28V16.9971H58.8507H57.4214V15.5803H55.9921H54.5651V14.1635H53.1359H51.7066V12.7467H50.2773H48.848V11.3321H50.2773V9.91533V8.49853H51.7066V7.08173V5.66493V4.24814H50.2773V2.8336H48.848V1.42582H47.4188V0.00902419H45.9918V0H44.5625H43.1332H41.7039H40.2747H38.8454V1.4168H37.4184V2.8336H35.9891V4.24814V5.66493H37.4184H38.8454H40.2747V4.24814H41.7039V2.8336H43.1332H44.5625V4.24814H45.9918V5.66493H47.4188V7.08173V8.49853H45.9918V9.91533H44.5625V11.3321H43.1332H41.7039V9.91533H40.2747V8.49853H38.8454H37.4184H35.9891V9.91533V11.3321H37.4184V12.7467H38.8454V14.1635H40.2747H41.7039V15.5803H43.1332H44.5625H45.9918V16.9971H47.4188H48.848V18.4139H50.2773H51.7066V19.8307H53.1359H54.5651V21.2452H55.9921H57.4214V22.662H58.8507H60.28V24.0788H61.7092H63.1362V25.4956H64.5655H65.9948V26.9124H67.4241H68.8533V28.3269H70.2826H71.7096V29.7437H73.1389H74.5682V31.1605H75.9974H77.4267V32.5773H75.9974H74.5682H73.1389H71.7096H70.2826H68.8533H67.4241H65.9948H64.5655H63.1362H61.7092H60.28H58.8507H57.4214H55.9921H54.5651H53.1359H51.7066H50.2773H48.848H47.4188H45.9918H44.5625H43.1332H41.7039H40.2747H38.8454H37.4184H35.9891H34.5598H33.1306H31.7013H30.2743H28.845H27.4157H25.9865H24.5572H23.1279H21.7009H20.2717H18.8424H17.4131H15.9838H14.5568H13.1276H11.6983H10.269H8.83973V31.1605H10.269H11.6983V29.7437H13.1276H14.5568V28.3269H15.9838H17.4131V26.9124H18.8424H20.2717V25.4956H21.7009H23.1279V24.0788H24.5572H25.9865V22.662H27.4157H28.845V21.2452H30.2743H31.7013V19.8307H33.1306H34.5598V18.4139H35.9891H37.4184H38.8454V16.9971H37.4184V15.5803H35.9891V14.1635H34.5598H33.1306V15.5803H31.7013H30.2743H28.845V16.9971H27.4157H25.9865V18.4139H24.5572H23.1279V19.8307H21.7009H20.2717V21.2452H18.8424H17.4131V22.662H15.9838H14.5568V24.0788H13.1276H11.6983V25.4956H10.269H8.83973V26.9124H7.41045H5.98346V28.3269H4.55418H3.12491V29.7437H1.69563V31.1605H0.266357V32.5773V33.9941V35.4109H1.69563V36.8255H3.12491H4.55418H5.98346H7.41045H8.83973H10.269H11.6983H13.1276H14.5568H15.9838H17.4131H18.8424H20.2717H21.7009H23.1279H24.5572H25.9865H27.4157H28.845H30.2743H31.7013H33.1306H34.5598H35.9891H37.4184H38.8454H40.2747H41.7039H43.1332H44.5625H45.9918H47.4188H48.848H50.2773H51.7066H53.1359H54.5651H55.9921H57.4214H58.8507H60.28H61.7092H63.1362H64.5655H65.9948H67.4241H68.8533H70.2826H71.7096H73.1389H74.5682H75.9974H77.4267H78.8537H80.283H81.7122H83.1415H84.5708V35.4109H86.0001V33.9941V32.5773V31.1605H84.5708Z" fill="#9480AB"/>
<path d="M64.8249 67.8168V62.5692H59.5311V67.8168H54.2373V73.0643H59.5311V78.3119H64.8249V73.0643H70.1186V67.8168H64.8249Z" fill="#9480AB"/>
<path d="M75.4124 62.5692H70.1187V67.8168H75.4124V62.5692Z" fill="#9480AB"/>
<path d="M86.0001 62.5692H80.7063V67.8168H86.0001V62.5692Z" fill="#9480AB"/>
<path d="M75.4124 73.0643H70.1187V78.3119H75.4124V73.0643Z" fill="#9480AB"/>
<path d="M86.0001 73.0643H80.7063V78.3119H86.0001V73.0643Z" fill="#9480AB"/>
</g>
<defs>
<clipPath id="clip0_1_542">
<rect width="86" height="79" fill="white"/>
</clipPath>
</defs>
</svg>
